<svg width="64" height="64" viewBox="0 0 64 64" fill="none" xmlns="http://www.w3.org/2000/svg">
  <title>Starweaver Claw</title>
  <defs>
    <linearGradient id="bg" x1="8" y1="6" x2="56" y2="58" gradientUnits="userSpaceOnUse">
      <stop stop-color="#06B6D4" />
      <stop offset="0.52" stop-color="#2563EB" />
      <stop offset="1" stop-color="#7C3AED" />
    </linearGradient>
    <linearGradient id="star" x1="20" y1="10" x2="45" y2="51" gradientUnits="userSpaceOnUse">
      <stop stop-color="#FFFFFF" />
      <stop offset="1" stop-color="#CFFAFE" />
    </linearGradient>
    <filter id="shadow" x="2" y="2" width="60" height="62" color-interpolation-filters="sRGB">
      <feDropShadow dx="0" dy="4" stdDeviation="4" flood-color="#172554" flood-opacity="0.28" />
    </filter>
  </defs>

  <rect x="6" y="5" width="52" height="54" rx="16" fill="url(#bg)" filter="url(#shadow)" />
  <path d="M32 11L36.9 25.5L52 25.6L39.8 34.6L44.4 49L32 40.5L19.6 49L24.2 34.6L12 25.6L27.1 25.5L32 11Z" fill="url(#star)" />
  <path d="M21 17C28 25 29 37 23 50" stroke="#0F172A" stroke-width="4.5" stroke-linecap="round" opacity="0.24" />
  <path d="M32 15C37 26 37 38 31 51" stroke="#0F172A" stroke-width="4.5" stroke-linecap="round" opacity="0.24" />
  <path d="M43 18C47 29 46 39 39 50" stroke="#0F172A" stroke-width="4.5" stroke-linecap="round" opacity="0.24" />
  <circle cx="49" cy="16" r="4" fill="#67E8F9" />
</svg>
